Patient4_TMGait_0pt8_01_left_52_EMG.mot
version=1
nRows=34
nColumns=33
inDegrees=no
endheader
time	1LAddLong	2LGlutMax	3LGlutMed	4LIliopsoas	5LSemiMemb	6LBicFemLong	7LRecFem	8LVastMed	9LVastLat	10LGasMed	11LTibAnt	12lTibPost	13LPeroneusLong	14LSol	15LExtDigLong	16LFlexDigLong	17RAddLong	18RGlutMax	19RGlutMed	20RIliopsoas	21RSemiMemb	22RBicFemLong	23RRecFem	24RVastMed	25RVastLat	26RGasMed	27RTibAnt	28RTibPost	29RPeroneusLong	30RSol	31RExtDigLong	32RFlexDigLong
58.385	0.010681	0.85144	-0.16327	0.02533	-0.18326	0.062103	0.88684	0.001984	-0.29251	0.007477	-0.033112	-0.056152	0.37994	0.018616	0.038147	0.13641	0.031586	1.4027	-0.00473	0.042114	-0.19455	-0.15656	0.94284	-0.16327	0.000305	-0.006409	-0.01709	-0.00946	-0.068054	-0.040436	0.000763	-0.016174
58.386	0.029907	0.9436	-0.16708	0.033569	-0.096741	0.026093	0.8699	-0.013885	-0.32455	0.55969	-0.00824	-0.043335	0.27954	-0.16144	0.13702	0.1181	0.03006	1.4412	-0.31967	0.048676	-0.16907	-0.046082	0.84778	-0.057831	0.00412	-0.002441	0.044098	-0.011444	-0.11398	-0.027924	0.001068	-0.021667
58.387	0.055542	1.0341	-0.065918	0.012054	0.051117	-0.1506	0.83649	-0.013275	-0.2739	0.60394	-0.019836	0.2063	0.18356	-0.58853	0.13611	-0.1059	0.083313	1.4371	-0.26474	0.046387	-0.17197	0.00946	0.7666	-0.019379	0.014496	-0.009918	0.26596	-0.004425	-0.13534	-0.084991	0.000763	-0.019989
58.388	0.065308	1.0664	-0.076141	0.03006	0.12497	-0.28336	0.69916	-0.009918	-0.19699	0.11093	-0.021667	0.22049	0.09079	-1.1362	0.073853	0.22644	0.1265	1.4223	-0.13809	-0.030518	-0.16205	0.12604	0.83695	-0.028992	-0.005646	-0.010986	0.41153	-0.005646	-0.22842	-0.11536	0.004425	-0.020599
58.389	0.056305	1.0013	-0.1474	0.005951	0.083466	-0.13504	0.62134	-0.005188	-0.103	-0.037537	0.005188	-0.007935	0.023041	-1.0002	-0.06012	0.19302	0.074005	1.3708	0.040741	-0.082092	-0.11597	0.25482	0.83817	0.064697	0.005035	0.003357	0.66559	-0.001068	-0.12283	-0.17563	-0.000916	-0.019684
58.39	0.028839	0.97763	-0.18417	0.012817	0.027924	0.11185	0.71716	-0.010986	-0.057831	-0.21301	0.007782	0.035095	0.11032	-0.63568	-0.12558	-0.14038	0.073395	1.2492	-0.097504	-0.090942	-0.06485	0.34393	0.87341	0.078278	-0.006561	0.011292	0.64606	-0.005493	0.041199	-0.20004	0.002441	-0.016785
58.391	0.019836	1.0019	-0.057983	0.007324	0.013733	0.15732	0.62195	0.000305	-0.17761	-0.24994	0.028687	0.034637	0.21316	-0.30441	-0.15015	-0.10132	0.05249	1.2505	0.035706	-0.13702	-0.038757	0.25513	0.94788	0.1358	-0.023651	0.018768	-0.45944	-0.002441	0.16373	-0.26352	0.003967	-0.017395
58.392	0.012512	1.071	0.062256	0.038605	-0.018768	0.18265	0.59219	0.008392	-0.25253	-0.21774	0.023193	0.045013	0.2626	-0.00473	-0.22736	0.082703	0.030365	1.2364	0.1239	-0.14297	-0.014496	0.10315	0.92972	0.13199	-0.037079	0.012817	-0.75836	-0.010223	0.064087	-0.23117	0.001068	-0.014954
58.393	0.00824	1.0614	0.18234	0.006409	-0.061951	0.28961	0.59799	0.003815	-0.26245	-0.28137	0.022125	0.060883	0.16113	0.24414	-0.10956	0.15137	0.016785	1.1757	-0.039825	-0.17136	0.006256	0.010529	1.0037	0.16235	-0.055084	0.028992	-0.82611	-0.007782	-0.009613	-0.20355	-0.001984	-0.009766
58.394	0.00061	1.0269	0.22201	0	-0.098419	0.20004	0.52155	0.005188	-0.22156	0.015259	0.030365	0.022278	-0.083008	0.51941	0.11322	0.033112	0.002441	1.0024	-0.1355	-0.19241	0.024719	-0.10132	1.0611	0.17929	-0.054932	0.016785	-0.48462	-0.011444	-0.072021	-0.21332	0.002899	-0.014496
58.395	0.008392	1.0213	0.12512	0.011749	-0.10773	0.088654	0.35278	0.010376	-0.20371	0.1358	0.018311	0.095978	-0.14191	0.35126	0.23468	0.013885	-0.011597	0.91324	-0.23285	-0.20859	0.050659	-0.029602	1.0706	0.21179	-0.065002	0.010071	-0.26001	-0.010071	-0.014191	-0.031281	0.001068	-0.011597
58.396	0.017548	0.97412	0.062408	0.007019	-0.046387	0.077362	0.22201	0.018463	-0.21103	-0.057831	0.028076	0.25375	-0.19867	-0.041046	0.17014	0.024109	0.019989	0.89981	-0.25559	-0.13092	0.033875	0.042419	1.1015	0.19928	-0.085754	-0.000763	-0.15106	-0.01297	0.10315	0.1358	0.009308	-0.020294
58.397	0.018158	0.97443	0.039368	0.018616	-0.085907	0.1088	0.074921	0.023804	-0.19882	0.00351	0.015259	0.15533	-0.17166	0.018921	0.11932	0.048828	0.042877	0.81802	-0.10208	-0.075836	0.000153	-0.028229	1.0924	0.16556	-0.11414	-0.00824	-0.11871	-0.008698	0.11505	0.26733	0.002899	-0.027161
58.398	0.018005	0.98099	-0.005646	0.02243	-0.042419	0.1619	-0.02121	0.027313	-0.20554	0.063019	0.009155	-0.34485	-0.080719	0.12116	0.089722	0.014038	0.040588	0.74051	-0.15671	-0.031891	-0.027161	-0.17014	1.1713	0.052338	-0.1207	-0.014343	-0.63736	-0.010071	0.1004	0.41702	0.002899	-0.018768
58.399	0.005798	0.93323	0.048828	0.019531	-0.014343	0.31876	-0.11795	0.034637	-0.18646	0.031433	0.007324	0.00473	0.04364	0.32623	0.084686	-0.004272	0.022888	0.68237	-0.31418	-0.014496	-0.064392	-0.21271	1.1995	-0.061493	-0.13016	-0.00946	-0.50384	-0.006561	0.062561	0.37994	0.003204	-0.027618
58.4	-0.002136	0.867	0.10162	-0.002289	-0.083008	0.42602	-0.20218	0.020752	-0.1683	-0.028381	0.011139	0.079803	0.019073	0.4042	0.054626	0.009766	0.000305	0.61356	-0.27969	0.065918	-0.10773	-0.20813	1.1543	-0.11032	-0.11795	-0.001678	-0.51941	-0.010376	0.027161	0.20615	0.001221	-0.018616
58.401	0.002289	0.92194	0.074615	0.021667	-0.18478	0.5011	-0.29404	0.019073	-0.12283	0.007477	0.021362	0.047913	0.22049	0.07843	-0.006256	0.022278	0.018921	0.57754	-0.004425	0.17166	-0.16983	-0.18448	1.1069	-0.20416	-0.13046	0.003662	-0.271	-0.009918	-0.010071	0.014954	0.001526	-0.025024
58.402	-0.012817	1.0461	0.039063	0.012665	-0.28046	0.50461	-0.32455	0.015106	-0.12344	0.08316	0.017395	0.094757	0.46661	-0.35294	-0.040131	0.002747	0.032043	0.5925	-0.049591	0.17624	-0.19623	-0.1799	1.0847	-0.23239	-0.12421	0.000153	0.1767	-0.004425	0.035553	-0.020599	0.003204	-0.026093
58.403	-0.006561	1.2083	0.20218	0.01709	-0.27756	0.24689	-0.26718	0.00824	-0.06897	0.093689	0.044708	0.53528	0.24002	-0.6424	-0.059204	-0.042877	0.050049	0.61386	-0.16174	0.1831	-0.18478	-0.17624	1.042	-0.25681	-0.12741	0.003967	-0.077515	-0.005951	0.14603	-0.045776	0.002899	-0.02243
58.404	0.018463	1.2228	0.28046	0.024567	-0.20569	0.079498	-0.28686	0.004578	-0.024719	0.11505	0.047913	-0.16281	-0.66254	-0.31418	-0.054932	-0.052032	0.061646	0.57144	-0.15854	0.059052	-0.17761	-0.15595	1.0266	-0.19928	-0.11948	0.007629	-0.76126	-0.010529	0.21286	-0.006409	0.002136	-0.028687
58.405	0.027771	1.2566	0.23804	0.026398	-0.027313	0.006256	-0.31906	0.007324	-0.008392	0.065613	0.053558	0.098877	-0.18433	-0.006104	0.001831	-0.025177	0.052185	0.54916	-0.54001	-0.01297	-0.17822	-0.12253	1.0107	-0.13565	-0.099335	0.00473	-0.50751	-0.006409	0.11993	0.051422	0.000305	-0.028381
58.406	0.019836	1.2569	-0.015869	0.011902	-0.058899	-0.076599	-0.29282	0.011139	0.017853	-0.020447	0.013733	0.082703	1.1826	0.18539	0.082703	0.010681	0.043793	0.49316	-0.72617	0.059509	-0.18936	-0.079956	1.0129	-0.14313	-0.084839	0.012054	-0.17319	-0.004883	0.051117	0.061951	-0.001221	-0.026703
58.407	0.016022	1.2318	-0.066376	-0.019531	-0.056458	-0.4834	-0.3154	0.031433	0.027008	-0.035706	-0.021973	0.023193	1.0052	0.16068	0.096283	-0.011597	0.014954	0.52383	-0.57342	0.23163	-0.13397	0.033417	1.0109	-0.094299	-0.057526	0.005035	0.10727	-0.005951	0.001373	0.096588	0.000763	-0.027618
58.408	0.020752	1.0661	0.005493	-0.03891	0.09903	-0.33493	-0.37293	0.020294	0.03006	-0.018005	-0.059509	0.015564	0.63767	0.26184	0.04715	-0.009003	0.029297	0.55588	-0.30197	0.29144	-0.073853	0.15839	0.96542	-0.061951	-0.025482	0.003662	0.23773	-0.007477	-0.033875	0.10986	0.001221	-0.023956
58.409	0.023956	0.7489	-0.12802	0.006256	0.14099	-0.31647	-0.37979	0.008698	0.070953	0.09613	-0.040283	0.005646	0.31708	-0.12436	-0.26794	-0.032654	0.068359	0.43442	-0.21072	0.22385	-0.05661	0.16769	0.97321	-0.025635	-0.022888	-0.001831	0.24551	-0.006866	-0.12466	0.065308	-0.008392	-0.022583
58.41	0.02594	0.46646	-0.28229	-0.001526	0.11826	0.15167	-0.40604	0.011749	0.10452	0.11963	0.027161	0.01358	0.005188	-0.25116	-0.21942	-0.02594	0.069427	0.30716	-0.59158	0.027924	-0.046997	0.14633	0.90073	-0.033264	-0.017242	-0.002441	0.2533	-0.006866	-0.13473	0.035095	0.000458	-0.014496
58.411	0.017548	0.31479	-0.29022	0.015717	0.033569	0.60028	-0.43427	0.011139	0.10727	0.088654	0.10254	-0.007019	-0.56397	0.012665	-0.047302	-0.032654	0.04303	0.24277	-0.6102	-0.12787	-0.053101	0.13184	0.8551	-0.10101	-0.026245	0.001526	0.23117	-0.006866	-0.15015	0.009155	0.001984	-0.021057
58.412	0.028534	0.27039	-0.18921	0.003967	0.007782	0.53268	-0.53207	0.006714	0.28656	0.04303	0.064545	-0.022583	-1.6098	0.24567	-0.014954	-0.007477	0.045776	0.27771	-0.53055	-0.20645	-0.098419	0.10895	0.8905	-0.17349	-0.024719	-0.000153	0.271	-0.010071	-0.10178	0.035095	0.003815	-0.02533
58.413	0.031281	0.19333	-0.17975	0.01297	0.032043	-0.1561	-0.59204	0.007629	0.56427	0.03952	-0.054626	-0.031433	-0.49896	0.036011	-0.079651	-0.003052	0.002899	0.18601	-0.71564	-0.22659	-0.091248	0.092316	0.85434	-0.1976	-0.032196	-0.002289	0.27512	-0.00351	-0.037079	0.067444	0.002289	-0.020447
58.414	0.027924	-0.006256	-0.22812	0.003815	0.06958	-0.089569	-0.50476	0.012512	0.46295	0.058289	-0.074768	-0.049286	0.31662	-0.15472	-0.1709	0.002747	-0.04364	0.032654	-0.87112	-0.20752	-0.073242	0.048828	0.85525	-0.21149	-0.015564	-0.002441	0.033722	-0.008698	-0.009003	0.074921	0.001221	-0.017395
58.415	0.016785	-0.096588	-0.11169	-0.002289	0.028992	0.38956	-0.37354	0.033722	0.1358	0.049133	-0.038605	-0.05722	0.15686	-0.159	-0.095367	-0.001678	-0.13367	-0.013275	-0.67184	-0.18601	-0.07309	0.023499	0.8316	-0.17441	-0.030365	-0.002899	-0.1561	-0.008392	0.028534	0.068207	0.00412	-0.029907
58.416	0.00473	-0.21011	-0.16739	0.000763	-0.035553	0.67246	-0.36377	0.010223	0.059814	-0.17868	-0.014648	-0.059967	0.62546	0.19928	0.04364	0.002899	-0.20416	-0.087433	-0.54611	-0.091858	-0.07782	0.058136	0.80048	-0.12619	-0.020142	-0.004425	-0.067139	-0.006256	0.011749	0.054016	0.000153	-0.030518
58.417	0.003357	-0.20493	-0.16251	0.025482	-0.11246	0.55679	-0.42526	0.009766	0.059357	-0.33783	0.005951	-0.072784	0.19058	0.1416	-0.086975	-0.007324	-0.13779	-0.14648	-0.634	0.015411	-0.10208	0.045319	0.7428	-0.13992	-0.035553	-0.001068	0.022278	-0.003204	0.006256	0.016937	0.005646	-0.03952
58.418	-0.010681	-0.1445	-0.13473	0.04715	-0.068512	0.095978	-0.33081	0.005798	0.085144	0.12146	0.041046	-0.070343	0.061493	0.18967	0.084534	-0.014343	-0.11292	-0.20355	-0.42282	0.059052	-0.12894	0.032654	0.54764	-0.28214	-0.073242	0	0.1651	-0.005341	-0.059052	0.021362	0.004272	-0.038757
